<?xml version="1.0" encoding="UTF-8"?>
<svg id="Layer_1" data-name="Layer 1" xmlns="http://www.w3.org/2000/svg" viewBox="0 0 504 360">
  <defs>
    <style>
      .cls-1 {
        stroke-width: 0px;
        filter: invert(1)
      }
    </style>
  </defs>
  <path class="cls-1" d="m250.94,346.37c-2.94,3.45-6.7,5.26-10.61,6.96-3.66,1.58-7.44,1.63-11.2,1.33-5.72-.46-10.76-2.84-15.03-6.68-2.4-2.15-4.83-4.32-6.93-6.76-2.39-2.76-4.51-5.77-6.6-8.78-2.88-4.14-6.19-7.81-10.45-10.56-1.72-1.11-3.61-1.62-5.69-1.73-3.9-.22-7.61.67-11.28,1.77-.89.27-1.24.26-1.42-.81-.27-1.66-.81-3.27-1.29-5.12.56-.12,1.22-.24,1.88-.41,2.8-.77,5.59-1.58,8.39-2.33,4.58-1.23,8.9-1.02,12.98,1.82,4.06,2.82,7.06,6.5,9.54,10.7,2.34,3.97,4.68,7.94,7.16,11.82,2.74,4.29,6.91,6.56,11.72,7.79,1.28.33,2.58.61,3.73.88.96-1.01.8-1.81.32-2.73-1.48-2.85-3.13-5.65-4.26-8.64-1.16-3.06-1.9-6.29-2.59-9.5-.46-2.14-.51-4.37-.77-6.56-.04-.34-.2-.66-.33-1.05-2.45,1.13-4.11,3.02-5.63,5.06-1.2,1.61-2.28,3.3-3.44,4.95-.74,1.05-1.13,1.14-1.91.15-1.14-1.45-2.13-3.02-3.18-4.54-.05-.07-.07-.15-.13-.2-1.66-1.5-1.25-2.79-.12-4.58,2.43-3.86,1.29-7.09-2.27-9.64-3.11-2.23-6.71-3.2-10.41-3.86-1.04-.19-2.07-.43-3.11-.62-.43-.08-.88-.12-1.3-.07-5.4.62-10.24,2.61-14.55,5.91-.83.64-1.72,1.2-2.58,1.8-.74-1.77-1.44-3.43-2.14-5.1,4.26-3.68,9.01-6.5,14.35-8.19,2.45-.78,5.03-1.49,7.58-1.56,4.93-.13,9.54,1.31,13.73,3.99,1.31.84,2.58,1.78,4,2.38,2.75,1.17,5.45.55,7.91-.91,3.18-1.89,5.86-4.31,8.02-7.39,1.23-1.75,2.77-3.33,3.18-5.45.33-1.73.34-3.57.19-5.33-.06-.69-.94-1.31-1.43-1.97-.48-.64-1.06-.67-1.65-.24-1.66,1.2-3.32,2.41-4.94,3.67-4.14,3.2-8.63,5.71-13.95,6.09-3.67.26-7.39.25-11.06,0-3.84-.25-7.7-.71-11.47-1.46-6.23-1.24-12.16-3.5-17.76-6.46-3.36-1.78-6.4-4.16-9.69-6.09-2.5-1.46-5.09-2.89-7.81-3.81-1.82-.61-3.95-.31-5.95-.4-.48-.02-.96.02-1.44.03-4.87.09-9.36,1.59-13.5,4.02-4.26,2.5-4.93,5.32-3.98,10.25.9,4.62,4.01,7.36,8.25,8.94.73.27.96.61,1.02,1.35.14,1.55.41,3.09.64,4.68-4.46-1.55-8.6-3.44-11.77-7.06-2.75-3.14-4.2-6.76-4.76-10.84-.48-3.54-.93-7.09-1.69-10.58-.53-2.44-2.11-4.24-4.48-5.32-1.64-.75-3.18-1.73-4.74-2.65-1.82-1.08-3.16-2.64-3.93-4.58-.68-1.7-1.53-3.49-1.57-5.26-.04-1.76.49-3.76,1.42-5.25,1.14-1.83,2.75-3.56,5.14-3.94,2.52-.4,5.05-.36,7.09,1.39.75.64,1.21,1.73,1.53,2.7.27.84-1.33,1.89-2.36,1.65-.5-.11-.99-.25-1.49-.36-2.2-.51-4.28.9-4.48,3.13-.21,2.3.37,4.3,2.06,6.06,4.08,4.25,9.25,6.25,14.8,7.61,4.03.99,7.91.02,11.79-.82,3.14-.67,6.21-1.87,9.37-2.19,5.34-.53,10.7-.53,15.5,2.64,5.62,3.72,11.51,6.93,17.94,9.04,3.59,1.18,7.23,2.22,11.08,2.11,2.2-.07,4.42.19,6.59-.06,4.38-.5,8.67-1.39,12.53-3.76,3.83-2.35,5.48-7.6,4.62-11.47-.18-.79-.58-.97-1.31-1.05-2.33-.23-4.4.7-6.56,1.29-4.42,1.22-8.8,2.65-13.3,3.41-3.38.58-6.91.21-10.37.37-3.15.15-6.28.52-9.21,1.77-2.05.87-3.91.96-5.76-.6-1.25-1.05-2.75-1.8-4.42-2.87,1.1-.62,1.99-1.23,2.96-1.65,3.82-1.65,7.85-2.36,11.95-2.97,4.06-.61,8.06-1.64,12.09-2.49,7.2-1.52,13.83-4.57,20.1-8.25,4.51-2.65,8.35-6.24,11.04-10.95,2.18-3.82,3.96-7.8,4.91-12.04.73-3.27.96-6.62.23-10.05-.43-1.99-.23-4.24.19-6.27.9-4.32,2.27-8.54,3.18-12.86.59-2.82.47-5.71-.16-8.6-.79-3.64-1.44-7.33-1.85-11.03-.24-2.16.13-4.39.17-6.58.01-.7-.17-1.41-.19-2.11-.04-1.97-.02-3.94-.06-5.9-.01-.66-.02-1.37-.24-1.98-.65-1.84-1.39-3.65-2.11-5.47-1.19-3.01-3.77-4.8-6.13-6.73-1.6-1.3-3.37-2.49-5.24-3.32-1.69-.75-3.61-1.21-5.45-1.3-3.13-.15-6.3-.08-9.42.22-3.14.3-6.16,1.22-8.79,3.09-1.85,1.31-3.55,2.79-4.5,4.92-.22.48-.27,1.06-.29,1.6-.04,1.28-.14,2.57.01,3.83.27,2.23-.85,3.86-2.08,5.48-1.61,2.13-3.99,3-6.37,3.79-4.2,1.4-8.46,2.61-12.66,3.98-2.1.69-3.58,2.23-4.8,4.03-.18.26-.42.48-.68.76-1.81-3.91-1.81-7.71-.5-11.65,1.08-3.24,2.66-6.21,4.97-8.62,2.38-2.49,5.42-3.9,9.08-3.19.55.11,1.16-.13,1.75-.17,3.71-.26,7.05-1.53,10.02-3.72,2.51-1.84,4.92-3.82,7.38-5.73,1.49-1.16,1.31-3.44-.32-4.45-2.2-1.37-4.72-1.65-7.16-2.16-4.77-1-9.63-.65-14.41-.38-4.82.27-9.43,1.89-13.73,4.2-3.01,1.61-6.1,3.09-8.99,4.89-2.3,1.44-4.44,3.17-6.48,4.96-3.6,3.17-6.06,7.23-8.32,11.39-1.77,3.26-3.02,6.75-3.73,10.38-.37,1.89-.33,3.87-.32,5.82,0,2.86.07,5.73.25,8.59.13,1.97.88,3.56,2.34,3.8,1.44.24,2.89.46,4.34.51,2.76.1,5.42.67,7.8,2.02,3.95,2.25,6.52,5.5,6.86,10.24.13,1.8.28,3.63.74,5.36.57,2.1,1.45,4.11,3.28,5.54.86.67,1.58,1.52,2.52,2.44-2.32.18-4.39.1-6.48-.45-5.55-1.47-10.57-4.01-15.11-7.47-4.27-3.24-6.66-7.67-7.76-12.85-.67-3.18-1.48-6.35-1.96-9.56-.42-2.81-.53-5.68-.65-8.52-.04-.96.4-1.93.44-2.9.21-5.22,1.76-10.14,3.27-15.07.67-2.19.12-3.05-2.04-3.81-2.58-.9-4.9.06-7.14,1.01-5.99,2.53-10.56,6.82-14.09,12.21-1.86,2.85-3.08,5.93-2.8,9.46.11,1.31-.05,2.64.03,3.96.2,3.36.46,6.71.73,10.06.02.26.26.56.48.73.71.56,1.41,1.18,2.21,1.58,2.24,1.14,3.01,3.24,3.79,5.4.89,2.47,1.44,5.21,3.57,6.95,1.42,1.16,3.21,1.87,4.9,2.82-.75.95-2.14,1.41-3.44,1.67-4.14.8-8.18.26-11.71-2.11-2.55-1.71-3.9-4.32-4.39-7.4-.42-2.63.31-4.91,1.41-7.24.57-1.22.78-2.76.69-4.12-.17-2.42-.57-4.84-1.11-7.2-.34-1.47-1.07-2.86-1.7-4.25-.51-1.11-1.34-1.26-2.25-.39-.65.63-1.29,1.31-1.77,2.07-2.36,3.72-4.09,7.7-4.79,12.08-.3,1.86-.7,3.74-.7,5.61,0,3.35.62,6.67,2.9,9.25,1.04,1.17,2.66,1.92,4.15,2.59,2.72,1.23,5.53,2.24,8.29,3.37,2.73,1.12,4.27,3.36,5.5,5.89,1.75,3.61,2.39,7.42,2.12,11.42-.24,3.57-1.66,6.54-4.26,8.97-1.19,1.11-2.41,2.2-3.72,3.41.39-2.08.78-3.87,1.02-5.69.08-.58-.15-1.28-.43-1.82-1.7-3.21-4.01-5.86-6.78-8.27-3.16-2.76-5.41-6.17-4.33-10.83.36-1.53-.16-2.99-1.35-4.11-2.77-2.61-4.65-5.75-5.6-9.42-.32-1.25-.66-2.55-.65-3.82.05-3.65.06-7.33.5-10.94.51-4.12,2.02-8,4.22-11.53,2.24-3.61,4.45-7.27,7.1-10.57,2.43-3.03,5.35-5.68,8.17-8.36,1.83-1.74,3.83-3.31,5.83-4.84,2.7-2.07,5.7-3.64,8.89-4.84.58-.22,1.11-.59,1.65-.91.71-.41,1.6-.79,1.22-1.84-.38-1.05-1.1-1.79-2.32-1.94-2.11-.27-4.2-.62-6.3-.91-3.3-.45-6.23-1.87-9.05-3.51-1.56-.91-3.04-1.96-4.54-2.98-.81-.55-.74-1.04.11-1.57,1.23-.77,2.44-1.59,3.81-2.49.31.22.79.55,1.25.9,2.58,1.93,5.62,2.76,8.64,3.59,2.68.73,5.39,1.5,8.14,1.82,2.55.29,5.17.09,7.75-.04,1.92-.1,3.85-.34,5.74-.71,5.13-1,9.59-3.56,14.08-6.09,3.26-1.83,6.71-3.24,10.38-4.06,2.37-.53,4.75-1.05,7.14-1.52,1.04-.2,2.11-.24,3.15-.43.37-.07.71-.37,1.06-.56v-.36c-1.13-.39-2.21-.96-3.36-1.15-2.72-.44-5.46-.91-8.2-.96-2.3-.04-4.62.45-6.92.77-3.42.48-6.78.85-10.25.03-2.04-.48-4.06-.75-5.81-2.04-2.75-2.03-4.06-4.78-4.4-8.13-.35-3.47.93-6.51,2.25-9.54,1.01-2.32,1.43-4.57-.05-6.85-.05-.07.02-.22.07-.64,1.23.69,2.45,1.2,3.46,1.98,3.7,2.82,5.44,6.69,5.83,11.27.13,1.52.37,3.04.76,4.51.94,3.54,3.71,4.93,6.97,5.7,3.18.75,6.31.4,9.5-.14,1.68-.28,3.53.2,5.27.48,5.13.85,10.04,2.48,14.93,4.18.47.17.99.22,1.74.37-.12-1.02-.18-1.86-.33-2.7-.49-2.76-1.94-5.03-3.78-7.07-2.58-2.85-4.43-6.09-5.31-9.85-.45-1.9-.92-3.81-1.16-5.74-.15-1.2.05-2.45.2-3.67.51-4.03,1.53-7.95,3.15-11.65,1.82-4.15,3.88-8.19,5.87-12.26,1.46-2.99,2.72-6.04,2.47-9.46-.15-2.05-.37-4.11-2.08-5.6-.32-.28-.7-.5-1.09-.69-.7-.34-1.08-.31-1.5.59-.89,1.91-2.46,3.33-4.41,4.12-.8.32-1.84.18-2.75.04-2.05-.31-4.08-.8-6.13-1.13-2.05-.33-3.76.6-5.42,1.64-.46.29-.89.64-1.67.88.16-1.12.21-2.28.51-3.36,1.38-4.9,4.56-8.27,9.2-10.23,4.01-1.69,8.11-1.48,11.56,1.1,2.11,1.58,3.56,4.08,5.18,6.26,1.49,2,1.94,4.46,2.28,6.84.19,1.35-.16,2.81-.42,4.19-1.22,6.43-3.57,12.5-6.01,18.55-1.18,2.91-2.32,5.88-2.27,9.08.03,1.97.18,3.98.57,5.91.78,3.95,2.52,7.51,4.88,10.78.96,1.34,2.69,2.14,4.22,1.77.28-.07.57-.39.7-.67,2.12-4.35,4.74-8.39,7.71-12.19,1.72-2.21,3.64-4.28,5.58-6.3.78-.81.75-1.6.72-2.58-.07-1.94-1.16-3.47-1.81-5.18-1.04-2.75-2.16-5.47-3.13-8.24-.42-1.21-1.03-2.14-2.27-2.46-2.31-.61-4.62-1.22-6.97-1.66-1.73-.32-2-.52-1.61-2.22.5-2.23,1.02-2.56,3.24-2.09,2.61.55,5.22,1.1,7.84,1.6.47.09,1.02-.06,1.5-.2,2.36-.69,4.69-1.49,7.07-2.11,1.13-.29,1.05-.86.87-1.74-.48-2.31-.96-4.62-1.28-6.95-.1-.73.1-1.65.5-2.26,1-1.48.76-2.92-.02-4.24-1.2-2.02-2.48-4.01-3.94-5.86-2.7-3.43-6.12-6.08-9.89-8.19-2.93-1.64-6.04-2.99-9.11-4.36-1.29-.58-3.07.17-3.94,1.3-1.26,1.62-2.5,3.27-3.89,4.77-3.56,3.86-8.13,6.23-12.96,7.97-4.27,1.54-8.66,2.85-13.09,3.8-4.53.98-9.1,1.77-13.34,3.71-5.16,2.36-9.72,5.49-12.51,10.61-1.48,2.72-2.34,5.65-2.31,8.81.02,2.22-.24,4.45-.19,6.67.05,1.72.31,3.45.63,5.15.34,1.83-.02,2.48-1.82,2.82-.54.1-1.06.3-1.59.41-.53.12-1.08.19-1.8.31-.4-1.69-.92-3.37-1.17-5.1-.36-2.5-.62-5.01-.74-7.53-.15-3.42.79-6.62,2.01-9.81,2.07-5.4,5.9-9.29,10.48-12.46,3.39-2.35,7.11-4.14,11.16-5.2,4.43-1.15,8.8-2.54,13.24-3.63,3.73-.91,7.34-2.09,10.66-4,2.03-1.17,3.94-2.57,5.73-4.08,1.74-1.46,3.26-3.18,4.86-4.81.32-.32.56-.73.86-1.13-.25-.14-.38-.28-.51-.28-3.05-.08-6.1-.24-9.1.66-2.64.79-4.97,2.12-7.13,3.73-2.95,2.2-5.13,5.08-6.8,8.36-.14.28-.42.59-.7.68-1.52.51-3.06.95-4.81,1.48.37-1.21.58-2.28,1.03-3.25,1.54-3.37,3.09-6.78,5.77-9.41,3.68-3.62,7.96-6.35,13.14-7.27,2.94-.52,5.93-.89,8.91-1.07,1.7-.1,3.42.35,5.14.49,1.11.09,2.25-.04,3.34.12,2.31.33,4.67.56,6.89,1.23,4.77,1.44,9.43,3.28,13.49,6.2,2.62,1.88,4.85,4.31,7.24,6.5.16.15.23.41.32.62.89,2.2,2.71,3.04,4.9,3.09,3.64.09,7.29-.13,10.91.13,1.66.12,3.01-.2,4.29-1.05.5-.33,1.06-.87,1.19-1.41,1.29-5.13,3.19-10.03,5.56-14.75.96-1.92,2.05-3.79,3.23-5.59.98-1.48,1.15-3.13,1.22-4.77.03-.66-.45-1.47-.92-2.01-5.84-6.64-16.34-7.75-22.13-5.28-1.13.48-2.23,1.08-3.27,1.74-1.29.82-1.82,2.23-1.3,3.53,1.43,3.57.38,6.73-1.54,9.72-1.31,2.03-2.5,4.1-2.77,6.54-.12,1.09-.02,2.2-.02,3.36-2.03-.77-3.87-1.99-4.97-3.85-3-5.09-4.13-10.5.25-15.26.98-1.07,2.34-1.94,3.69-2.51,1.9-.8,3.62-1.68,5.12-3.17,6.15-6.08,16.94-7.74,24.65-3.82,1.3.66,2.38,1.73,3.58,2.58,1,.71,1.96,1.55,3.07,2.03,2.06.89,3.8.04,5.29-1.45,1.1-1.1,2.18-2.22,3.46-3.52,1.91,1.98,3.72,3.89,5.56,5.76,1.28,1.3,4.36,1.35,5.8.19,2.32-1.89,5.12-2.63,7.98-2.99,1.95-.24,3.96-.21,5.93-.05,1.43.12,2.47,1.11,3.35,2.26.86,1.14,1.78,2.26,2.76,3.3,2.11,2.27,2.44,6.88,1.24,8.93-1.18,2.02-2.3,4.09-3.45,6.13-1.31,2.31-1.28,4.81-1.06,7.34.04.47-.11.96-.17,1.44-.46-.17-.99-.25-1.38-.52-3.78-2.63-5.66-6.47-5.8-10.87-.09-2.9.93-5.86,2.74-8.28,1.05-1.41,2.48-2.54,3.64-3.87.27-.31.35-1.08.16-1.44-.58-1.05-2.63-1.78-3.72-1.23-1.62.81-3.17,1.8-4.69,2.79-1.06.69-1.99,1.6-3.06,2.28-2.54,1.61-2.93,4.39-1.48,6.79,2.89,4.81,5.17,9.91,6.71,15.33.32,1.13.6,2.26.99,3.37.11.32.49.63.82.76,3.2,1.26,5.88,3.36,8.71,5.23,2.81,1.87,6.05,2.49,9.39,2.18.88-.08,1.71-.81,2.55-1.26,6.63-3.59,13.25-7.2,19.9-10.76,3.17-1.69,6.36-3.35,9.61-4.89,1.39-.66,2.93-1.07,4.44-1.4.86-.19,1.76-.23,1.88-1.25.11-.94.3-2.12-.14-2.82-.76-1.21-1.81-2.41-3.02-3.15-6.67-4.05-13.78-7.11-21.47-8.58-2.27-.43-4.71-.43-7.01-.13-2.67.35-4.93,1.91-6.64,3.96-.76.91-1.12,2.27-1.33,3.48-.11.65.35,1.55.82,2.12,1.57,1.92,3.26,3.77,3.93,6.22,1.57,5.76-.66,11.92-6.67,13.91-1.56.52-3.23.81-4.87.94-1.29.11-1.59-.47-1.01-1.6,1.06-2.1,1.8-4.27,1.55-6.66-.09-.86-.23-1.74-.51-2.56-2.79-8.29,1.58-15.64,8.33-18.97,5.7-2.81,11.74-3.6,18.05-3.36,8.37.32,15.48,3.68,22.22,8.3,3.12,2.14,5.21,5.13,7.5,7.99.83,1.03,1.86,2,3,2.65,1.29.73,2.78,1.16,4.23,1.56,7.47,2.01,13.98,5.45,18.21,12.25,2.41,3.88,3.96,7.99,3.97,12.7,0,7.94-2.16,15.13-6.48,21.74-1.94,2.96-4.47,5.26-7.22,7.45-2.11,1.68-3.97,3.72-5.73,5.78-1.89,2.23-3.62,4.62-5.23,7.07-.84,1.28-1.31,2.82-1.89,4.26-1.64,4.07-3.46,8.05-6.27,11.46-1.18,1.43-2.72,2.57-4.01,3.93-.75.79-1.43,1.68-1.96,2.64-.39.72-.14,1.38.72,1.83,2.06,1.07,4.28,1.37,6.52,1.42,2.74.07,5.55.21,8.22-.28,4.45-.82,8.83-2.12,12.34-5.21,1.61-1.42,2.21-3.43,2.3-5.53.09-1.96.12-3.93,1.68-5.37.96-.88,2.09-1.58,3.18-2.32,2.02-1.37,4.2-2.54,6.06-4.1,2.22-1.86,3.1-4.5,3.26-7.37,0-.16-.02-.33.02-.48.08-.29.21-.57.46-1.23.69,1.28,1.4,2.28,1.78,3.38,1.09,3.14,1.43,6.36.88,9.68-.94,5.67-4.41,9.2-9.48,11.43-3.45,1.52-7.12,2.63-9.95,5.3-.67.63-1.14,1.49-1.71,2.24l.29.38c1-.09,2.02-.06,2.98-.29,4.83-1.16,9.75-2.09,14.44-3.66,5.44-1.82,10.57-4.51,15.14-8.02,2.66-2.04,4.58-4.82,5.98-7.89,1.42-3.13,2.43-6.36,2.69-9.83.32-4.27-.79-8.1-3.3-11.49-1.34-1.8-1.46-3.83-1.85-6.04,3.01,1.08,5.05,3.07,6.5,5.6,2.67,4.66,3.64,9.77,3.14,15.07-.52,5.49-2.3,10.63-5.2,15.35-.99,1.61-2.17,3.09-3.22,4.66-2.28,3.41-1.05,5.66,1.76,7.67,2.42,1.73,5.21,2.94,7.71,4.58,5.08,3.34,9.03,7.78,12.2,12.95,3.57,5.83,5.95,12.11,7.4,18.76.29,1.34.18,2.78.56,4.08.85,2.85.42,5.73.37,8.57-.05,2.64-.44,5.3-1.01,7.88-.63,2.82-1.55,5.6-2.52,8.32-1.02,2.84-2.27,5.6-3.38,8.41-.66,1.69-1.28,3.39-1.82,5.12-.14.44.08,1,.18,1.5.48,2.43,1.23,4.84,1.4,7.29.31,4.73-2,8.26-5.82,10.86-1.63,1.11-3.36,2.09-5.01,3.16-1.57,1.02-2.24,2.87-1.65,4.66.38,1.14.87,2.25,1.23,3.59-1.04-.87-2.29-1.59-3.07-2.65-2.13-2.92-3.09-6.37-3.11-9.91-.03-3.99,1.52-7.51,4.38-10.42,2.6-2.65,5.26-5.27,7.63-8.11,1.23-1.47,2.05-3.36,2.76-5.17.99-2.51,1.83-5.1,2.51-7.72.81-3.16,1.55-6.37,1.97-9.6.15-1.16-.72-2.45-1.18-3.66-.04-.09-.7-.13-.84.03-3.14,3.32-5.28,7.05-5.83,11.76-.53,4.49-2.28,8.59-6.23,11.29-2.1,1.43-4.54,1.94-7.04,2.19-.79.08-1.62.03-2.35.27-1.93.65-3.73-.16-5.57-.37-.57-.07-1.07-.65-1.9-1.19,1.32-.16,2.24-.31,3.17-.39,2.03-.18,3.42-1.38,4.08-3.13.92-2.45,1.7-5,2.19-7.57.81-4.25,4.35-7.75,7.88-8.89,1.02-.33,2.24-.21,3.34-.05,1.47.21,2.34-.54,3.09-1.54,1.75-2.33,2.88-4.98,3.68-7.76.66-2.3,1.26-4.63,1.6-6.98.18-1.2-.18-2.5-.44-3.73-.86-4-2.41-7.73-4.43-11.28-1.52-2.67-3.02-5.36-4.61-7.99-1.66-2.73-4.13-4.67-6.73-6.42-3.41-2.28-7.14-3.86-11.12-4.85-.32-.08-.67-.05-1.2-.08.77,2.01,2.32,2.73,3.96,3.33,2.74,1,5.46,2.06,7.59,4.14,2.76,2.69,4.15,6.04,4.41,9.87.23,3.47-.3,6.84-1.5,10.36-.41-.61-.83-1.04-1.01-1.55-.97-2.7-2.91-4.53-5.25-6.04-2.46-1.58-4.89-3.19-7.33-4.8-.14-.09-.21-.29-.31-.44-1.49-2.37-2.34-4.9-2.13-7.74.08-.99-.09-2.01.04-2.99.15-1.19-.43-1.97-1.21-2.67-2.24-2.02-4.89-2.94-7.9-2.91-2.72.03-5.45-.17-8.15.05-3.65.29-7.3.79-10.92,1.35-2.02.31-3.98.96-5.98,1.4-1.02.22-1.08.92-1.21,1.74-.4,2.45,1.43,3.45,2.98,4.51,2.93,2,5.99,3.81,8.97,5.73,4.05,2.61,7.83,5.56,11.29,8.93,1.92,1.87,4.35,2.61,6.96,2.85,4.96.46,9.38,2.08,12.4,6.26,1.25,1.73,2.01,3.81,3.15,5.64,1.76,2.83,4.4,4.37,7.73,4.63,1.21.1,2.43.02,3.64.02.03.1.05.21.08.31-.61.3-1.19.71-1.84.88-4.69,1.18-9.37,1.45-14.14.21-2.25-.59-4.52-1.03-6.64-2.04-3.32-1.57-5.66-4.12-7.42-7.25-1.23-2.19-2.18-4.57-3.64-6.59-1.5-2.08-3.47-3.82-5.24-5.7-.09-.1-.29-.1-.68-.22.11.53.12.93.27,1.27,1.22,2.56,2.61,5.06,3.68,7.69.74,1.83,1.16,3.82,1.54,5.78.45,2.29.74,4.6,1.01,6.92.12,1.02.09,2.08.02,3.11-.15,2.47-.37,4.93-.54,7.4-.44,6.6-2.27,12.59-6.96,17.56-1.69,1.79-3.6,2.79-5.9,3.41-3.3.89-6.31,4.81-6.34,8.24,0,1.43,0,2.87,0,4.67-1.72-1.33-3.46-2.28-4.69-3.69-2.57-2.97-4.16-6.42-3.74-10.53.49-4.87,3.46-9.25,8.09-10.32,1.91-.44,3.91-.61,5.87-.63,2.92-.03,5.49-1.02,7.95-2.42,2.28-1.3,2.87-3.62,3.25-5.91.36-2.16.55-4.39.47-6.57-.09-2.24-.59-4.46-.93-6.68-.56-3.63-1.46-7.17-2.86-10.57-.19-.46-.51-.86-.76-1.29-.09.04-.19.08-.28.12-.12,1.27-.22,2.55-.35,3.82-.51,5.24-3.31,9.07-7.57,11.89-2.19,1.45-3.94,3.28-5.53,5.33-2.04,2.63-5.01,3.57-8.08,4.36-2.13.55-4.28,1.14-6.3,1.99-2.63,1.11-4.42,3.11-5.03,6.11-1.23-1.67-1.56-3.5-1.31-5.37.51-3.95,2.1-7.43,5.1-10.14,1.52-1.37,2.89-3.05,5.09-3.35,1.4-.19,2.84-.26,4.24-.15,1.8.14,3.57.67,5.37.77,3.8.21,6.41-1.76,8.29-4.91,2.34-3.92,2.89-8.26,2.26-12.61-.77-5.28-3.22-9.75-7.7-12.99-2.83-2.05-5.7-3.98-8.95-5.26-4.78-1.88-9.67-3.39-14.8-4-2.56-.3-5.13-.51-7.69-.71-2.69-.2-5.38-.35-8.08-.49-.4-.02-.81.16-1.22.25.18.35.37.7.53,1.06,1.13,2.47,2.43,4.89,3.32,7.45.95,2.74,1.44,5.63,2.25,8.43.39,1.34.96,2.65,1.59,3.91,1.47,2.91,1.25,5.87.35,8.85-.98,3.24-2.67,6.1-4.89,8.61-2.4,2.7-4.92,5.28-7.4,7.91-.21.22-.47.39-.9.74.35-1.33.65-2.42.93-3.52.48-1.86.13-3.65-.66-5.31-.8-1.7-1.81-3.31-2.79-4.92-1.54-2.53-1.48-5.23-.67-7.88,1.13-3.67,3.66-6.06,7.39-7.15.94-.28,1.8-.82,2.72-1.16.99-.37,1.28-1.04,1.17-2.04-.39-3.46-1.62-6.6-3.83-9.27-1.67-2.02-3.99-3.09-6.53-3.53-5.55-.95-10.66.23-15.53,3.07-6.84,3.99-11.19,9.75-13.47,17.27-.81,2.66-.87,5.3-.87,8,0,1.48-.06,2.96.01,4.44.16,3.28-.75,6.33-1.93,9.32-2.13,5.38-2.57,10.91-1.35,16.53.57,2.64,1.6,5.18,2.16,7.82.55,2.62.97,5.31,1.08,7.98.17,4.19-.13,8.4.1,12.58.12,2.12.8,4.26,1.56,6.28,1.49,3.98,3.84,7.53,7.03,10.3,2.6,2.26,5.51,4.31,8.57,5.88,4.9,2.5,9.94,4.79,15.1,6.68,4.01,1.47,8.27,2.29,12.46,3.2,2.77.6,5.64.74,8.42,1.3,1.9.38,3.73,1.12,5.57,1.75,1.61.55,2.49,1.95,3.38,3.22,2.1,3,5.32,3.95,8.51,5.03,2.8.95,5.69,1.67,8.36,2.9,5.13,2.37,8.24,6.64,9.95,11.91.69,2.11,1.02,4.33,1.53,6.57-1.14.39-1.93.74-2.76.92-1.61.34-2.72-.59-3.35-2.42-1.64-4.83-4.55-8.64-9.05-11.2-4.46-2.54-9.33-3.5-14.34-4.13-2.59-.33-5.34-.55-7.09-2.99-.76-1.06-1.59-2.09-2.23-3.22-1.26-2.21-3.38-3.1-5.61-3.81-4.11-1.31-8.36-1.95-12.64-2.39-1.97-.2-3.97-.27-5.95-.26-3.71.03-7.28-.8-10.86-1.63-1.01-.23-2.12-.8-3.03.13-1.01,1.03-.99,2.28-.69,3.66.58,2.69,1.57,5.13,3.6,7.07,2.87,2.73,6.05,4.79,10.18,4.92,1.02.03,2.06.13,3.06.34,1.67.35,3.28.51,5.01.17,2.82-.55,5.72-.71,8.53-1.29,2.07-.43,4.11-1.15,6.07-1.96,1.16-.48,2.04-.44,2.9.4,1.32,1.3,2.97,1.87,4.76,2.15,2.21.34,4.41.7,6.84,1.08-1.26.85-2.36,1.81-3.63,2.41-3.28,1.54-6.55,3.15-9.97,4.3-3.9,1.31-7.92,2.32-11.95,3.12-3.13.62-6.35.87-9.54,1.02-3.59.17-7.07-.7-10.48-1.76-5.41-1.68-10.54-4.03-15.49-6.76-1.24-.69-2.47-1.42-3.77-1.96-.53-.22-1.47-.22-1.84.11-.51.46-1.01,1.37-.91,2,.87,5.68,2.91,10.84,6.66,15.32,1.77,2.12,3.77,3.81,6.21,5.01,2.07,1.02,4.2.87,6.37.26,2.86-.8,5.13-2.69,7.73-3.99,2.15-1.07,4.3-2.19,6.57-2.94,1.41-.47,3.03-.38,4.55-.38,1.6,0,3.23.04,4.78.36,3.95.82,7.57,2.46,10.78,4.91,1.45,1.11,2.9,2.28,4.06,3.66,1.51,1.81,2.72,3.87,4.09,5.8,1.1,1.55,2.11,3.18,3.4,4.56,1.12,1.19,2.81,1.56,4.38,1.34,4.7-.65,8.77-2.76,12.36-5.82,2.3-1.96,4.51-4.01,6.15-6.6.19-.3.6-.62.92-.64,1.3-.07,2.6-.03,4.01-.03-.55,2.38-1.84,4.17-3.22,5.89-3.37,4.19-7.64,7.22-12.5,9.47-3.36,1.55-6.89,2.42-10.53,2.9-1.13.15-2.23.46-3.36.61-.74.1-1.54.18-2.26.02-4.26-.96-8.49-2.08-12.77-2.96-5.04-1.03-9.92-.58-14.35,2.32-.72.47-1.34,1.12-2.07,1.58-.26.17-.84.18-1.06,0-.68-.53-1.28-1.18-1.86-1.82-.62-.68-.67-1.5-.07-2.15,2.61-2.83,5.34-5.51,9.13-6.8,3.22-1.1,6.36-.73,9.53.26,2.36.74,4.78,1.3,7.17,1.93.25.07.54-.02,1.12-.06-.26-.79-.37-1.51-.7-2.11-2.37-4.29-5.66-7.65-10.32-9.39-1.79-.66-3.76-1.31-5.61-1.23-2.19.1-4.41.82-6.5,1.59-4.98,1.83-9.59,4.44-14.14,7.14-.61.36-.92.75-.53,1.43.93,1.6,1.71,3.32,2.84,4.78,1.69,2.19,3.49,4.32,5.48,6.24,3.46,3.35,7.37,6.04,12.12,7.35,6.47,1.79,13.95-1.01,17.58-6.47.62-.94,1.4-.59,2.11-.61,1.85-.06,3.71-.02,5.56,0,.19,0,.39.04.82.09-.5,1.21-.86,2.37-1.44,3.42-2.26,4.07-5.88,6.61-9.88,8.75-2.48,1.33-5.05,2.32-7.81,2.93-5.04,1.11-9.56.02-13.68-2.93-2.83-2.02-5.66-4.06-8.31-6.31-3.19-2.7-6.17-5.66-9.29-8.45-1.49-1.33-3.1-2.53-4.68-3.75-.25-.19-.62-.23-.93-.34-.1.32-.26.64-.3.97-.35,3.1-.48,6.25-1.07,9.31-1.09,5.67-3.17,10.98-6.64,15.68-.37.5-.62,1.09-.91,1.65-.45.88-.07,1.22.83,1.28,2.84.17,5.33-.77,7.72-2.2,4.45-2.65,7.43-6.74,10.55-10.69.56-.7,1.03-1.47,1.67-2.37,1.13.87,2.22,1.7,3.3,2.53.61.47.67.95.15,1.59-1.71,2.13-3.22,4.43-5.07,6.42-3.73,4.02-7.54,8.03-12.6,10.42-3.78,1.79-7.77,2.87-12.05,2.54-4.69-.36-9.1-1.54-12.85-4.43-3.06-2.36-5.82-5.09-7.93-8.35-2.32-3.59-4.55-7.25-6.68-10.97-1.82-3.17-2.29-6.79-3.12-10.3-.98-4.14-.06-8.05,1.11-11.84,1.5-4.83,4.36-8.93,8.48-12,1.54-1.15,3.2-.81,4.73.46,2.56,2.12,4.56,4.69,6.04,7.61,1.47,2.91,2.61,5.96,2.77,9.31.08,1.71.48,3.41,0,5.13-.65,2.33-1.09,4.73-1.87,7.02-.94,2.78-2.08,5.5-3.26,8.2-.41.95-1.18,1.75-1.91,2.8-1.06-1.54-2.06-2.85-2.87-4.25-.23-.4-.02-1.13.13-1.66,1.04-3.57,2.38-7.07,3.09-10.7.66-3.39,1.06-6.95-.58-10.26-.81-1.64-1.97-3.01-3.7-3.82-1.1-.51-1.87.17-2.54.72-1.72,1.4-2.71,3.24-2.87,5.5-.06.89-.43,1.78-.43,2.67-.01,1.71,0,3.44.25,5.12.32,2.09.76,4.18,1.41,6.18,1.37,4.2,3.55,7.94,6.66,11.15,1.74,1.79,3.48,3.55,5.71,4.73,3.01,1.6,5.93,1.23,8.84-.3,3.8-2,5.59-5.5,7.09-9.28,1.65-4.16,1.95-8.51,1.6-12.85-.43-5.42-2.25-10.46-5.15-15.12-2.76-4.44-5.27-9.04-8.07-13.45-1.9-2.99-4.06-5.81-6.19-8.65-.84-1.13-1.73-2.34-2.88-3.09-4.18-2.75-4.97-2.37-8.49.65-3.93,3.37-6.68,7.76-9.34,12.16-2.44,4.04-4.87,8.09-7.15,12.22-2.05,3.72-3.7,7.65-4.68,11.79-.52,2.21-.92,4.5-.96,6.77-.04,2.74.46,5.44,1.24,8.13,1,3.44,2.63,6.36,5.26,8.79,2.35,2.17,4.97,3.26,8.26,3.24,2.26-.02,4.2-.68,6.16-1.55.69-.31,1.25-.27,1.7.28,1.04,1.27,2.02,2.58,3,3.84Zm74.18-270.73c-.04-.67-.05-.73,1.54-1.75,3.59-2.29,7.46-3.05,11.71-2.46,4.6.64,8.27,2.68,11.1,6.33.45.58,1.08,1.05,1.69,1.47,1.61,1.11,3.24.81,5.01.2,2.48-.86,4.45-2.22,5.83-4.46,3.18-5.14,3.55-10.62,2.13-16.35-.88-3.56-2.36-6.84-5.1-9.34-1.26-1.15-2.82-1.96-4.27-2.89-6-3.87-12.59-5.16-19.57-4-2.72.45-5.37,1.48-7.97,2.48-4.24,1.64-8.42,3.43-12.59,5.23-3.4,1.47-5.56,4.16-6.99,7.49-.51,1.19-.32,1.93.95,2.34,1.08.36,2.38.63,3.45.39,9.98-2.3,20.1-3.39,30.33-3.49,6.36-.07,12.69.27,18.98,1.22.37.06.86.32,1.01.63.92,1.92,1.36,3.97,1.27,6.1-.04.95-.49,1.4-1.57,1.27-2.1-.26-4.21-.45-6.32-.56-11.7-.61-23.33.08-34.89,1.91-4.86.77-9.69,1.69-14.25,3.6-1.38.57-2.69,1.41-3.84,2.36-.55.45-.9,1.44-.9,2.19,0,2.07.25,4.14.37,6.2.25,4.35.48,8.7.74,13.04.02.34.09.76.3,1,.67.77,1.46,1.42,2.11,2.2,2.12,2.54,4.22,5.09,6.27,7.68.92,1.16,1.63,2.5,2.58,3.64,1.32,1.58,2.92,2.94,4.12,4.59,1.27,1.75,2.85,2.72,4.92,2.88,1.85.14,3.81.21,5.33-1.06,2.21-1.84,4.38-3.77,6.4-5.81,2.81-2.84,5.43-5.83,7.14-9.53.75-1.62,1.59-3.23,2.63-4.68,1.16-1.61,2.67-2.97,3.9-4.54,1.12-1.43,2.49-2.36,4.19-2.9,2.55-.8,4.32-2.51,5.6-5.09-4.43.31-8.74-.46-12.99.84-3.81,1.16-5.86.17-8.6-2.86-1.51-1.68-3.5-3.1-5.55-4.07-1.85-.88-4.06-.98-6.2-1.44Zm-66.46,36.45c.53.48.94.93,1.43,1.26,2.93,2.01,5.77,4.21,8.87,5.94,3.29,1.84,6.83,3.25,10.28,4.8.3.13.93.03,1.14-.21,2.21-2.42,4.52-4.78,6.49-7.39,3.67-4.86,5.7-10.47,6.92-16.39.08-.38-.07-1.03-.35-1.24-2.7-2.01-5.32-4.19-8.23-5.84-3.66-2.07-7.58-3.68-11.39-5.49-.61-.29-.88-.23-1.14.55-.67,1.99-1.47,3.95-2.34,5.87-2.98,6.53-6.77,12.56-11.68,18.13Zm-33.78,12.28c7.81-2.75,14.83-6.81,21.09-12.28-3.14-3.78-6.15-7.5-8.33-11.79-2.16-4.27-4.21-8.59-6.36-13-2.23.96-4.68,1.9-7.02,3.05-4.2,2.05-8.11,4.57-11.76,7.49-.7.56-2.05.95-1.63,2.32,1,3.27,1.83,6.63,3.17,9.77,2.41,5.64,6.09,10.43,10.83,14.45Zm42.06-47.98c.35-4.28.73-8.35.98-12.43.09-1.45-.08-2.93-.23-4.39-.19-1.91-.43-3.82-.73-5.72-.06-.37-.45-.9-.78-.98-3.34-.8-6.67-1.8-10.06-2.18-2.94-.33-5.96-.02-8.93.18-3.05.21-6.02.95-8.87,2.1-.25.1-.55.41-.58.65-.35,2.81-.87,5.62-.92,8.43-.07,3.36.21,6.73.45,10.09.1,1.38.49,2.74.76,4.18,9.6-1.77,19.06-1.77,28.91.05Zm3.97,54.05c-6.95-3.2-13.08-7.13-18.56-12-5.56,4.92-11.67,8.8-18.51,12,12.45,5.67,24.58,5.57,37.07,0Zm-6.59-45.37c-5.44-1.58-18.77-1.54-23.9,0,2.37,7.63,8.91,17.88,12.06,20.47,5.24-6.08,9.19-12.9,11.85-20.48Zm29.67,2.88c.92-8.15-11.18-28.38-17.49-29.3.11,1.41.3,2.78.31,4.16,0,1.66-.08,3.33-.23,4.98-.29,3.17-.5,6.36-1.05,9.49-.22,1.28.15,1.54,1.15,1.88,4.67,1.6,9.14,3.66,13.32,6.31,1.27.81,2.56,1.59,3.99,2.47Zm-66.09-29.66c-9.83,7.52-15.88,17.24-17.44,29.85.47-.28.74-.44,1-.59,3.54-2,7.03-4.08,10.63-5.95,1.93-1,4.05-1.63,6.06-2.47.68-.28,1.23-.41,1.04-1.63-.62-4.04-.97-8.12-1.27-12.2-.17-2.28-.03-4.59-.03-7Zm12.47-15.28c8.01-1.78,15.85-1.75,23.88-.04-2.67-7.72-6.67-14.4-11.91-20.55-5.3,6.09-9.19,12.89-11.97,20.59Zm-37.01,63.82c-5.04,6.12-8.75,12.67-11.27,19.93,7.53,1.37,14.92,1.5,22.55.23-5.28-5.91-8.97-12.51-11.28-20.16Zm86.83,20.02c.05.14.1.28.15.42,3.98.19,7.95.41,11.93.56,1.18.04,2.37-.11,3.55-.23,2.07-.22,4.14-.46,6.2-.75.16-.02.41-.58.34-.8-2.02-5.94-5.09-11.32-8.75-16.38-.7-.96-1.5-1.84-2.34-2.86-2.16,7.69-5.95,14.23-11.07,20.04Z"/>
  <path class="cls-1" d="m345.38,268.89c2.67-.96,5.16-1.87,7.89-1.97,4.47-.16,8.85.15,13.2,1.35,3.99,1.09,8.04,1.98,12.27,1.84,3.11-.11,6.01-.88,8.82-2.08,1.46-.62,2.98-1.21,4.24-2.14,2.94-2.17,6.05-4.3,7.17-8.06.32-1.07.31-2.32.1-3.43-.31-1.66-1.92-2.28-4.06-1.75-.95.24-1.87.66-2.83.84-.59.11-1.5.14-1.81-.2-.39-.44-.48-1.3-.42-1.96.2-2.34,2.13-2.94,3.91-3.55,5.7-1.99,11.05,2.85,11.14,8.5.08,5.37-2.78,8.54-7.11,10.95-2.15,1.19-4.51,2.12-6.11,4.14-1.64,2.07-2.59,4.43-2.66,7.08-.1,3.54-.5,7.01-1.65,10.38-1.34,3.93-3.77,6.98-7.11,9.41-2.49,1.81-5.2,3.12-8.18,3.82-2.66.63-5.32.93-8.1.35-1.82-.38-3.78-.16-5.67-.19-1.87-.03-3.69.13-5.45.94-3.38,1.56-5.81,4.06-7.59,7.25-.7,1.27-1.26,2.62-1.99,4.17-.56-.59-1.22-1.05-1.57-1.69-.99-1.83-1.91-3.71-2.71-5.63-.19-.46-.01-1.34.33-1.73,2.17-2.48,4.54-4.78,7.5-6.32,2.46-1.28,5.02-2.33,7.89-2.28,2,.03,4-.06,5.99.02,1.82.08,3.63.27,5.44.49,3.79.47,7.38-.17,10.42-2.5,1.3-1,2.21-2.56,3.14-3.97,1.43-2.17,2.37-4.64,2.44-7.2.05-1.81-.51-3.88-2.23-4.99-1.56-1.01-3.29-1.85-5.06-2.42-3.47-1.13-6.98-2.24-10.55-2.93-2.36-.46-4.89-.4-7.31-.18-2.12.2-4.08-.23-6.01-.82-2.1-.65-4.07-1.67-5.7-3.53Z"/>
  <path class="cls-1" d="m121.4,99.08c0,1.87.06,3.62-.01,5.37-.11,2.61-.36,5.21-.47,7.82-.08,1.87.1,3.76-.04,5.63-.16,2.14,1.64,3.99,3.31,4.7,2.05.87,4.14,1.79,5.91,3.1,1.37,1.01,2.34,2.61,3.35,4.05,1.23,1.75,2.92,2.59,4.94,2.88,1.32.19,2.67.25,4.23.38-.37.4-.63.77-.97,1.03-3.8,2.95-8.22,3.88-12.83,3.33-4.36-.52-8.07-2.46-9.99-6.75-.33-.73-.52-1.58-.54-2.39-.07-2.16-.09-4.32.01-6.47.09-1.92.38-3.84.59-5.82-1.58-.25-1.91,1-2.43,1.72-2.54,3.5-5.4,6.68-8.51,9.7-3.06,2.98-6.7,5.16-9.97,7.83-2.26,1.85-4.21,4.09-6.29,6.17-.15.15-.29.43-.26.62.21,1.46.12,3.11.78,4.35,2.05,3.88,1.48,7.46-.84,10.87-1.16,1.71-2.62,3.23-4.02,4.77-2.62,2.89-2.71,6.15-1.57,9.72-1.11.01-1.81-.78-2.41-1.46-1.9-2.16-3.66-4.45-4.3-7.34-1.45-6.56-.15-12.54,3.77-18.01,3.28-4.59,7.61-7.98,12.13-11.22,3.11-2.23,6.04-4.73,8.96-7.22,3.38-2.88,6.26-6.24,8.55-10.04,1.55-2.57,2.86-5.3,3.39-8.31.37-2.12.68-4.26.96-6.4.21-1.62,1.69-1.56,2.68-2.12.46-.26,1.05-.28,1.91-.49Z"/>
  <path class="cls-1" d="m154.82,67.46c.76,5.06.95,10.03-2.3,14.55-1.15,1.61-2.42,3.01-3.97,4.27-1.59,1.29-3.42,1.77-5.27,2.19-5.09,1.15-9.95,2.67-14.28,5.82-2.11,1.53-4.8,2.29-7.27,3.31-5.1,2.11-10.29,4-14.88,7.18-2.82,1.95-5.6,4.02-7.47,6.89-2.13,3.28-3.83,6.87-3.4,10.98.17,1.67.55,3.33.98,4.95.41,1.52.37,2.77-1.16,3.64-.85.49-1.64,1.08-2.46,1.62-.67.44-1.13.25-1.36-.48-.68-2.12-1.55-4.2-1.98-6.37-1.25-6.41.01-12.4,3.77-17.73,2.47-3.51,5.78-6.19,9.55-8.25,5.49-2.99,11.5-4.51,17.49-6.08,3.33-.88,6.6-2.01,9.84-3.2,1.51-.55,2.19-1.99,2.47-3.53.25-1.35.36-2.72.64-4.06.45-2.11,1.67-3.71,3.65-4.6,2.36-1.06,4.8-1.94,7.12-3.07,1.43-.7,2.83-1.57,4.03-2.61,1.75-1.51,3.3-3.25,4.95-4.88.27-.26.57-.49.86-.73.15.06.3.12.45.18Z"/>
  <path class="cls-1" d="m200.22,336.33c-2.04.69-3.71,1.35-5.43,1.81-2.69.72-5.38,1.57-8.12,1.84-2.36.23-4.83-.08-7.19-.49-4.7-.81-8.86-2.91-12.17-6.34-2.77-2.88-4.82-6.26-5.63-10.28-.57-2.8-1.1-5.62-1.94-8.35-1.34-4.37-3.7-8.19-7.77-10.47-1.68-.94-3.79-1.24-5.75-1.55-1.49-.24-3.05-.07-4.58-.04-.67.02-1.02-.17-1.15-.87-.14-.77-.46-1.5-.6-2.27-.24-1.36.79-2.18,2.92-2.13,2.37.06,4.74.27,7.11.45,2.69.21,5.18,1.07,7.67,2.09,3.61,1.47,6.12,4.1,7.63,7.49,1.59,3.56,2.58,7.38,3.94,11.05.95,2.56,1.83,5.2,3.19,7.55,1.88,3.26,5.35,4.24,8.79,4.9,3.97.76,7.92.47,11.7-.96,1.64-.62,2.81-.45,3.76.99,1.18,1.79,2.33,3.59,3.63,5.58Z"/>
  <path class="cls-1" d="m153.9,280.78c-4.62.1-8.16,2.04-11.22,5.05-1.78,1.75-2.54,4.05-3.25,6.33-.58,1.86-1.14,3.81-1.17,5.73-.03,1.89.37,3.88,1.02,5.68,1.83,5.08,5.73,7.72,10.96,8.47,1.83.26,3.7.48,5.54.44,1.21-.03,1.35.62,1.57,1.44.77,2.99,1.55,5.98,2.33,8.97.03.11.03.23.08.68-2.07-.37-4.07-.58-5.98-1.09-4.49-1.21-8.57-3.25-12.02-6.45-3.13-2.91-5.53-6.31-7.17-10.26-1.57-3.78-1.97-7.73-1.65-11.75.25-3.09,1.47-5.93,2.99-8.62,2.04-3.61,4.78-6.53,8.49-8.49.91-.48,1.74-.61,2.81-.4,2.41.49,4.34,1.77,6.2,3.23.24.19.29.61.49,1.06Z"/>
  <path class="cls-1" d="m372.26,60.37c3.88,1.43,7.16,3.39,10.15,5.91,3.16,2.66,5.81,5.71,7.83,9.31,1.83,3.28,2.94,6.81,3.69,10.48.46,2.25.47,4.4-.15,6.62-.4,1.42-.28,2.98-.62,4.43-.68,2.93-1.37,5.87-2.33,8.72-1.15,3.4-1.4,6.77-.4,10.21.26.88.36,1.68-.38,2.32-.95.81-1.95,1.56-3.25,2.59-.82-2.19-1.55-4.1-2.25-6.03-.97-2.69-.21-5.25.65-7.8,1.25-3.71,2.49-7.42,3.73-11.14.05-.15.13-.3.13-.45.14-5.03.4-10.1-2.05-14.75-2.7-5.1-6.11-9.58-11.32-12.4-.52-.28-1.06-.6-1.63-.68-1.34-.19-1.55-.98-1.54-2.16.02-1.66-.15-3.32-.25-5.18Z"/>
  <path class="cls-1" d="m150.68,106.89c-.41-2.67-.92-5.32-1.21-8.01-.45-4.12.53-7.93,2.8-11.4,1.92-2.93,4.5-4.89,8.03-5.49,4.15-.71,7.55-2.86,10.85-5.38,1.77-1.36,3.95-2.2,5.97-3.22.46-.23,1.02-.26,1.61-.4-.65,2.1-1.74,3.65-3.63,4.66-1.41.76-2.74,1.69-4.07,2.61-1.53,1.06-2.41,2.49-1.62,4.34,1.11,2.62-.04,4.82-1.14,7-1.84,3.63-5.24,4.98-8.94,5.76-2.98.63-5.44,1.92-6.54,4.97-.45,1.25-.77,2.54-1.18,3.8-.09.28-.3.52-.46.78-.15,0-.31-.01-.46-.02Z"/>
  <path class="cls-1" d="m387.87,87.84c-4.34-1.61-8.16-.51-11.68,1.89-2.23,1.52-3.87,3.5-3.66,6.48.1,1.46.39,2.98.09,4.37-.34,1.56-.99,3.19-1.94,4.45-2.23,2.94-5.43,4.49-8.97,5.27-2.98.66-6,1.15-9,1.7-.15.03-.31-.02-.89-.08.69-.74,1.16-1.31,1.68-1.81.65-.62,1.3-1.25,2.03-1.78,2.49-1.83,2.37-4.74,3.11-7.3.41-1.41.88-2.81,1.44-4.16,1.07-2.56,3.31-3.43,5.82-3.8.78-.12,1.59-.09,2.35-.28.58-.14,1.18-.43,1.63-.81,1.8-1.56,3.41-3.37,5.33-4.74,1.67-1.18,3.66-1.94,5.55-2.79.99-.44,2.09-.65,3.13-.99,1.87-.63,3.2-.25,3.74,2.42.12.57.14,1.16.24,1.97Z"/>
  <path class="cls-1" d="m396.86,125.92c.51-1.09.91-2.01,1.39-2.89.09-.16.48-.24.71-.22,2,.15,3.65-.59,5.23-1.76,1.44-1.07,3.15-1.85,4.95-1.55,1.83.3,3.72.79,5.33,1.66,3.03,1.62,5.37,4.02,6.1,7.55.48,2.3,1.13,4.65,1.06,6.96-.08,2.81-.84,5.6-1.57,8.4-.59-1.31-1.09-2.66-1.79-3.91-1-1.76-1.73-3.82-3.74-4.72-1.63-.73-3.34-1.32-5.06-1.83-2.56-.75-5.05-1.54-6.52-4.02-.16-.27-.33-.55-.41-.84-.56-2.12-1.4-2.8-3.6-2.83-.62-.01-1.25,0-2.08,0Z"/>
  <path class="cls-1" d="m127.83,81.42c.13-5.23.87-10.34,3.72-14.87,1.25-1.98,3.34-3.08,5.5-3.96,1.33-.54,2.66-1.13,3.92-1.81.5-.27,1.01-.77,1.22-1.28.63-1.56,1.91-2.06,3.36-2.4,1.44-.35,1.38-.36,1.52,1.1.14,1.49.44,2.95.6,4.44.39,3.59-.22,6.98-3.2,9.25-1.42,1.08-3.41,1.58-5.22,1.94-3.28.64-5.82,2.47-8.26,4.53-.66.55-1.12,1.33-1.68,1.99-.37.44-.77.85-1.16,1.28-.11-.06-.21-.12-.32-.19Z"/>
</svg>